<?xml version="1.0" standalone="no"?>
<!DOCTYPE svg PUBLIC "-//W3C//DTD SVG 20010904//EN"
 "http://www.w3.org/TR/2001/REC-SVG-20010904/DTD/svg10.dtd">
<svg version="1.0" xmlns="http://www.w3.org/2000/svg"
 width="421.000000pt" height="421.000000pt" viewBox="0 0 421.000000 421.000000"
 preserveAspectRatio="xMidYMid meet">
<metadata>
Created by potrace 1.14, written by Peter Selinger 2001-2017
</metadata>
<g transform="translate(0.000000,421.000000) scale(0.100000,-0.100000)"
fill="#000000" stroke="none">
<path d="M2067 3674 c-1 -1 -47 -4 -102 -7 -55 -3 -107 -8 -116 -12 -8 -3 -33
-8 -55 -10 -203 -20 -443 -174 -529 -340 -16 -32 -30 -61 -31 -64 0 -3 -3 -13
-7 -21 -8 -22 -27 -84 -32 -109 -7 -30 -10 -43 -45 -166 -16 -60 -32 -119 -34
-130 -4 -17 -19 -82 -32 -137 -9 -41 -14 -65 -19 -93 -3 -16 -8 -37 -10 -45
-15 -56 -23 -149 -13 -176 4 -12 4 -25 0 -29 -4 -4 -7 -10 -8 -13 0 -4 -6 -20
-13 -37 -7 -16 -14 -34 -15 -40 -1 -5 -4 -14 -7 -20 -6 -9 -41 -110 -45 -127
-1 -5 -3 -10 -4 -13 -1 -3 -4 -9 -5 -15 -1 -5 -4 -12 -5 -15 -1 -3 -4 -9 -5
-15 -1 -5 -4 -12 -5 -15 -1 -3 -3 -8 -4 -12 -2 -5 -8 -26 -14 -48 -6 -22 -14
-56 -17 -75 -4 -19 -8 -39 -9 -45 -1 -5 -10 -25 -20 -43 -15 -29 -17 -50 -11
-135 3 -56 8 -153 10 -215 3 -63 7 -144 10 -180 17 -256 24 -561 14 -592 -3
-8 -11 -26 -19 -40 -7 -14 -12 -25 -11 -25 2 0 -4 -25 -13 -56 -16 -55 -22
-79 -32 -129 -3 -14 -7 -33 -10 -42 -3 -10 -7 -29 -10 -43 l-4 -24 1314 0
c764 0 1317 3 1321 8 7 13 -58 265 -90 342 -27 68 -28 86 -10 384 2 39 7 124
10 190 4 66 8 131 10 145 2 14 7 44 10 67 3 23 8 57 11 75 3 18 6 83 8 143 7
202 -35 368 -154 615 -24 48 -37 91 -38 120 -2 38 -20 151 -36 225 -3 11 -12
53 -21 94 -9 41 -18 78 -21 83 -3 5 -8 21 -10 36 -15 82 -108 392 -134 446
-64 133 -230 266 -395 317 -22 6 -51 15 -65 20 -46 15 -144 30 -235 35 -164 9
-195 10 -198 8z"/>
</g>
</svg>
